<svg width="1555.651123" height="651.866028" viewBox="0 0 1555.65 651.866" fill="none" xmlns="http://www.w3.org/2000/svg" xmlns:xlink="http://www.w3.org/1999/xlink">
	<desc>
			Created with Pixso.
	</desc>
	<defs>
		<linearGradient x1="286.598877" y1="284.062164" x2="132.890518" y2="583.697876" id="paint_linear_132_17_0" gradientUnits="userSpaceOnUse">
			<stop stop-color="#D4145A"/>
			<stop offset="1.000000" stop-color="#2E3192"/>
		</linearGradient>
		<linearGradient x1="1338.722168" y1="360.653564" x2="1409.641602" y2="31.445023" id="paint_linear_132_18_0" gradientUnits="userSpaceOnUse">
			<stop stop-color="#D4145A"/>
			<stop offset="1.000000" stop-color="#2E3192"/>
		</linearGradient>
		<linearGradient x1="485.094604" y1="441.120605" x2="410.536560" y2="586.462341" id="paint_linear_132_19_0" gradientUnits="userSpaceOnUse">
			<stop stop-color="#D4145A"/>
			<stop offset="1.000000" stop-color="#2E3192"/>
		</linearGradient>
		<linearGradient x1="1106.340088" y1="260.321381" x2="1140.740356" y2="100.635010" id="paint_linear_132_20_0" gradientUnits="userSpaceOnUse">
			<stop stop-color="#D4145A"/>
			<stop offset="1.000000" stop-color="#2E3192"/>
		</linearGradient>
		<linearGradient x1="438.926788" y1="345.793060" x2="403.589233" y2="414.679321" id="paint_linear_132_21_0" gradientUnits="userSpaceOnUse">
			<stop stop-color="#D4145A"/>
			<stop offset="1.000000" stop-color="#2E3192"/>
		</linearGradient>
		<linearGradient x1="1175.607300" y1="340.451233" x2="1191.911743" y2="264.766174" id="paint_linear_132_22_0" gradientUnits="userSpaceOnUse">
			<stop stop-color="#D4145A"/>
			<stop offset="1.000000" stop-color="#2E3192"/>
		</linearGradient>
	</defs>
	<g opacity="0.094610">
		<path d="M309.91 565.88L375.4 438.22C379.45 430.31 378.98 420.8 374.16 413.33L296.18 292.72C291.33 285.23 282.86 280.89 273.98 281.33L130.53 288.35C121.63 288.82 113.65 293.95 109.59 301.86L44.1 429.53C40.05 437.43 40.52 446.94 45.34 454.41L123.32 575.02C128.14 582.5 136.61 586.84 145.52 586.41L288.97 579.39C297.85 578.95 305.85 573.79 309.91 565.88Z" fill="url(#paint_linear_132_17_0)" fill-opacity="1.000000" fill-rule="nonzero"/>
	</g>
	<g opacity="0.094610">
		<path d="M1243.26 94.46L1213.05 234.73C1211.18 243.42 1214.09 252.48 1220.68 258.45L1327.22 354.77C1333.85 360.74 1343.15 362.74 1351.61 360.02L1488.36 316.11C1496.83 313.36 1503.21 306.33 1505.08 297.64L1535.3 157.38C1537.17 148.69 1534.26 139.62 1527.66 133.66L1421.13 37.34C1414.53 31.37 1405.23 29.37 1396.73 32.08L1259.99 75.99C1251.52 78.72 1245.14 85.77 1243.26 94.46Z" fill="url(#paint_linear_132_18_0)" fill-opacity="1.000000" fill-rule="nonzero"/>
	</g>
	<g opacity="0.094610">
		<path d="M496.4 577.83L528.16 515.93C530.13 512.08 529.9 507.48 527.55 503.87L489.74 445.37C487.38 441.75 483.29 439.65 478.98 439.85L409.41 443.26C405.1 443.46 401.21 445.98 399.26 449.8L367.5 511.71C365.53 515.56 365.76 520.15 368.11 523.77L405.92 582.27C408.27 585.89 412.37 587.99 416.68 587.79L486.25 584.37C490.53 584.16 494.44 581.65 496.4 577.83Z" fill="url(#paint_linear_132_19_0)" fill-opacity="1.000000" fill-rule="nonzero"/>
	</g>
	<g opacity="0.094610">
		<path d="M1060.03 131.18L1045.38 199.2C1044.47 203.43 1045.88 207.81 1049.09 210.69L1100.75 257.41C1103.96 260.3 1108.46 261.26 1112.56 259.96L1178.89 238.66C1183 237.35 1186.1 233.91 1187 229.71L1201.65 161.69C1202.56 157.47 1201.15 153.09 1197.93 150.2L1146.28 103.48C1143.06 100.6 1138.56 99.63 1134.46 100.94L1068.14 122.24C1064.06 123.55 1060.93 126.99 1060.03 131.18Z" fill="url(#paint_linear_132_20_0)" fill-opacity="1.000000" fill-rule="nonzero"/>
	</g>
	<g opacity="0.094610">
		<path d="M444.28 410.58L459.34 381.24C460.27 379.41 460.14 377.24 459.06 375.52L441.14 347.79C440.01 346.07 438.08 345.08 436.03 345.17L403.05 346.78C401.01 346.87 399.18 348.07 398.24 349.9L383.19 379.24C382.25 381.07 382.38 383.24 383.46 384.96L401.39 412.69C402.51 414.41 404.45 415.4 406.5 415.31L439.48 413.7C441.51 413.57 443.34 412.41 444.28 410.58Z" fill="url(#paint_linear_132_21_0)" fill-opacity="1.000000" fill-rule="nonzero"/>
	</g>
	<g opacity="0.094610">
		<path d="M1153.66 279.25L1146.72 311.49C1146.28 313.5 1146.97 315.56 1148.46 316.95L1172.94 339.09C1174.48 340.45 1176.61 340.91 1178.56 340.3L1210 330.2C1211.94 329.59 1213.4 327.96 1213.84 325.95L1220.78 293.71C1221.21 291.7 1220.53 289.64 1219.04 288.25L1194.54 266.11C1193.02 264.74 1190.89 264.29 1188.93 264.9L1157.5 275C1155.56 275.65 1154.09 277.24 1153.66 279.25Z" fill="url(#paint_linear_132_22_0)" fill-opacity="1.000000" fill-rule="nonzero"/>
	</g>
</svg>
